# Blender 4.0.2
# www.blender.org
o Handrail_Stairs
v 9.000000 0.000000 0.650000
v 9.000000 1.200000 0.650000
v 9.035356 0.000000 0.664645
v 9.035356 1.200000 0.664645
v 9.050000 0.000000 0.700000
v 9.050000 1.200000 0.700000
v 9.035356 0.000000 0.735355
v 9.035356 1.200000 0.735355
v 9.000000 0.000000 0.750000
v 9.000000 1.200000 0.750000
v 8.964644 0.000000 0.735355
v 8.964644 1.200000 0.735355
v 8.950000 0.000000 0.700000
v 8.950000 1.200000 0.700000
v 8.964644 0.000000 0.664645
v 8.964644 1.200000 0.664645
v 9.000000 0.000000 -0.750000
v 9.000000 1.900000 -0.750000
v 9.035356 0.000000 -0.735355
v 9.035356 1.900000 -0.735355
v 9.050000 0.000000 -0.700000
v 9.050000 1.900000 -0.700000
v 9.035356 0.000000 -0.664645
v 9.035356 1.900000 -0.664645
v 9.000000 0.000000 -0.650000
v 9.000000 1.900000 -0.650000
v 8.964644 0.000000 -0.664645
v 8.964644 1.900000 -0.664645
v 8.950000 0.000000 -0.700000
v 8.950000 1.900000 -0.700000
v 8.964644 0.000000 -0.735355
v 8.964644 1.900000 -0.735355
v 9.070711 1.270710 0.600000
v 9.000000 1.300000 0.600000
v 9.000000 2.000000 -1.000000
v 9.000000 2.000000 -0.600000
v 9.070711 1.970711 -1.000000
v 9.070711 1.970711 -0.600000
v 9.100000 1.900000 -1.000000
v 9.100000 1.900000 -0.600000
v 9.070711 1.829289 -1.000000
v 9.070711 1.829289 -0.600000
v 9.000000 1.800000 -1.000000
v 9.000000 1.800000 -0.600000
v 8.929289 1.829289 -1.000000
v 8.929289 1.829289 -0.600000
v 8.900000 1.900000 -1.000000
v 8.900000 1.900000 -0.600000
v 8.929289 1.970711 -1.000000
v 8.929289 1.970711 -0.600000
v 9.100000 1.200000 0.600000
v 9.070711 1.129289 0.600000
v 9.000000 1.100000 0.600000
v 8.929289 1.129289 0.600000
v 8.900000 1.200000 0.600000
v 8.929289 1.270710 0.600000
v 9.070711 1.270710 1.000000
v 9.000000 1.300000 1.000000
v 9.100000 1.200000 1.000000
v 9.070711 1.129289 1.000000
v 9.000000 1.100000 1.000000
v 8.929289 1.129289 1.000000
v 8.900000 1.200000 1.000000
v 8.929289 1.270710 1.000000
vn -0.0000 -0.0000 -1.0000
vn 0.7071 -0.0000 -0.7071
vn 1.0000 -0.0000 -0.0000
vn 0.7071 -0.0000 0.7071
vn -0.0000 -0.0000 1.0000
vn -0.7071 -0.0000 0.7071
vn -1.0000 -0.0000 -0.0000
vn -0.7071 -0.0000 -0.7071
vn -0.6681 -0.7173 -0.1979
vn -0.0000 -0.9692 -0.2462
vn -0.0000 -0.7764 0.6303
vn -0.5490 -0.5490 0.6303
vn 0.9973 0.0629 0.0367
vn 0.6681 0.7173 0.1979
vn 0.7300 0.6582 0.1839
vn 0.9973 -0.0629 -0.0367
vn -0.0000 0.7764 -0.6303
vn -0.0000 0.9692 0.2462
vn 0.5490 0.5490 -0.6303
vn -0.0000 0.9604 0.2786
vn -0.0000 0.7764 0.6303
vn 0.5490 0.5490 0.6303
vn -0.7300 -0.6582 -0.1839
vn -0.0000 -0.9604 -0.2786
vn 0.7764 -0.0000 -0.6303
vn 0.7764 -0.0000 0.6303
vn -0.6681 0.7173 0.1979
vn -0.7300 0.6582 0.1839
vn 0.7300 -0.6582 -0.1839
vn 0.5490 -0.5490 -0.6303
vn -0.9973 -0.0629 -0.0367
vn -0.7764 -0.0000 0.6303
vn 0.6681 -0.7173 -0.1979
vn -0.0000 -0.7764 -0.6303
vn -0.5490 0.5490 0.6303
vn -0.9973 0.0629 0.0367
vn -0.5490 -0.5490 -0.6303
vn -0.7764 -0.0000 -0.6303
vn 0.5490 -0.5490 0.6303
vn -0.5490 0.5490 -0.6303
vt 0.611961 0.012869
vt 0.611961 0.542357
vt 0.595076 0.542357
vt 0.595076 0.012869
vt 0.578190 0.542357
vt 0.578190 0.012869
vt 0.561305 0.542357
vt 0.561305 0.012869
vt 0.544419 0.542357
vt 0.544419 0.012869
vt 0.527534 0.542357
vt 0.527534 0.012869
vt 0.510648 0.542357
vt 0.510648 0.012869
vt 0.493763 0.542357
vt 0.493763 0.012869
vt 0.476877 0.542357
vt 0.476877 0.012869
vt 0.366711 0.012869
vt 0.366711 0.851225
vt 0.349825 0.851225
vt 0.349825 0.012869
vt 0.332940 0.851225
vt 0.332940 0.012869
vt 0.316054 0.851225
vt 0.316054 0.012869
vt 0.451138 0.012869
vt 0.451138 0.851225
vt 0.434253 0.851225
vt 0.434253 0.012869
vt 0.417367 0.851225
vt 0.417367 0.012869
vt 0.400482 0.851225
vt 0.400482 0.012869
vt 0.383596 0.851225
vt 0.383596 0.012869
vt 0.045150 0.177051
vt 0.012869 0.173585
vt 0.023924 0.012869
vt 0.054675 0.014985
vt 0.209371 0.811782
vt 0.180464 0.820226
vt 0.183167 0.193908
vt 0.216476 0.183916
vt 0.149926 0.987131
vt 0.151206 0.823376
vt 0.186169 0.986897
vt 0.145999 0.198369
vt 0.146682 0.020289
vt 0.175557 0.019989
vt 0.060903 0.803350
vt 0.026101 0.798930
vt 0.222078 0.985071
vt 0.204586 0.018419
vt 0.121763 0.820773
vt 0.108952 0.194882
vt 0.240442 0.802110
vt 0.256786 0.982360
vt 0.075925 0.185547
vt 0.086608 0.017317
vt 0.275332 0.797431
vt 0.247429 0.175030
vt 0.279491 0.171056
vt 0.290316 0.979555
vt 0.117269 0.019292
vt 0.092396 0.812756
vt 0.012869 0.978387
vt 0.047207 0.980919
vt 0.641797 0.649626
vt 0.608026 0.649626
vt 0.584146 0.625747
vt 0.584146 0.591975
vt 0.608026 0.568096
vt 0.641797 0.568096
vt 0.665677 0.591975
vt 0.665677 0.625746
vt 0.080102 0.983416
vt 0.234793 0.015939
vt 0.114269 0.985750
vt 0.500757 0.649626
vt 0.476877 0.625746
vt 0.476877 0.591975
vt 0.500757 0.568096
vt 0.534528 0.568096
vt 0.558408 0.591976
vt 0.558408 0.625747
vt 0.534528 0.649626
vt 0.266351 0.013172
s 1
f 1/1/1 2/2/1 4/3/2 3/4/2
f 3/4/2 4/3/2 6/5/3 5/6/3
f 5/6/3 6/5/3 8/7/4 7/8/4
f 7/8/4 8/7/4 10/9/5 9/10/5
f 9/10/5 10/9/5 12/11/6 11/12/6
f 11/12/6 12/11/6 14/13/7 13/14/7
f 13/14/7 14/13/7 16/15/8 15/16/8
f 15/16/8 16/15/8 2/17/1 1/18/1
f 17/19/1 18/20/1 20/21/2 19/22/2
f 19/22/2 20/21/2 22/23/3 21/24/3
f 21/24/3 22/23/3 24/25/4 23/26/4
f 23/27/4 24/28/4 26/29/5 25/30/5
f 25/30/5 26/29/5 28/31/6 27/32/6
f 27/32/6 28/31/6 30/33/7 29/34/7
f 29/34/7 30/33/7 32/35/8 31/36/8
f 31/36/8 32/35/8 18/20/1 17/19/1
f 54/37/9 53/38/10 61/39/11 62/40/12
f 40/41/13 38/42/14 33/43/15 51/44/16
f 35/45/17 36/46/18 38/42/14 37/47/19
f 33/43/15 34/48/20 58/49/21 57/50/22
f 46/51/23 44/52/24 53/38/10 54/37/9
f 37/47/19 38/42/14 40/41/13 39/53/25
f 51/44/16 33/43/15 57/50/22 59/54/26
f 36/46/18 50/55/27 56/56/28 34/48/20
f 39/53/25 40/41/13 42/57/29 41/58/30
f 55/59/31 54/37/9 62/40/12 63/60/32
f 44/61/24 42/57/29 52/62/33 53/63/10
f 41/58/30 42/57/29 44/61/24 43/64/34
f 34/48/20 56/56/28 64/65/35 58/49/21
f 50/55/27 48/66/36 55/59/31 56/56/28
f 43/67/34 44/52/24 46/51/23 45/68/37
s 0
f 57/69/5 58/70/5 64/71/5 63/72/5 62/73/5 61/74/5 60/75/5 59/76/5
s 1
f 42/57/29 40/41/13 51/44/16 52/62/33
f 45/68/37 46/51/23 48/66/36 47/77/38
f 38/42/14 36/46/18 34/48/20 33/43/15
f 52/62/33 51/44/16 59/54/26 60/78/39
f 47/77/38 48/66/36 50/55/27 49/79/40
f 56/56/28 55/59/31 63/60/32 64/65/35
f 48/66/36 46/51/23 54/37/9 55/59/31
f 49/79/40 50/55/27 36/46/18 35/45/17
s 0
f 35/80/1 37/81/1 39/82/1 41/83/1 43/84/1 45/85/1 47/86/1 49/87/1
s 1
f 53/63/10 52/62/33 60/78/39 61/88/11
