# Blender 4.0.2
# www.blender.org
mtllib VendingMachine.mtl
o Cube
v 1.000000 3.000000 -1.000000
v 1.000000 0.000000 -1.000000
v -1.000000 3.000000 -1.000000
v -1.000000 0.000000 -1.000000
v 0.536548 2.595829 0.900000
v 1.000000 3.000000 0.791588
v 0.968247 3.000000 0.868247
v 1.000000 0.000000 0.791588
v 0.530974 0.330057 0.900000
v 0.968247 0.000000 0.868247
v -1.000000 3.000000 0.791588
v 0.178869 2.595829 0.900000
v -0.968247 3.000000 0.868247
v -0.530974 0.330057 0.900000
v -1.000000 0.000000 0.791588
v -0.968247 0.000000 0.868247
v -0.891589 0.000000 0.900000
v -0.891589 3.000000 0.900000
v 0.891589 3.000000 0.900000
v 0.891589 0.000000 0.900000
v 1.000000 0.705827 -1.000000
v -1.000000 0.705827 -1.000000
v -0.891589 0.705827 0.900000
v -0.968247 0.705827 0.868247
v -1.000000 0.705827 0.791588
v 0.891589 0.705827 0.900000
v 0.968247 0.705827 0.868247
v 1.000000 0.705827 0.791588
v -0.530974 0.684280 0.900000
v 0.530974 0.684280 0.900000
v 0.536548 1.015081 0.900000
v 0.659318 0.201713 0.900000
v -0.659318 0.201713 0.900000
v 0.178869 1.015082 0.900000
v 0.530974 0.684280 0.618625
v 0.530974 0.330057 0.618625
v -0.530974 0.330057 0.618625
v -0.530974 0.684280 0.618625
v -0.659318 0.812624 0.900000
v -0.659318 2.798287 0.900000
v 0.659318 2.798287 0.900000
v 0.659318 0.812624 0.900000
v 0.178869 1.015082 0.943818
v 0.178869 2.595829 0.943818
v 0.536548 2.595829 0.943818
v 0.536548 1.015081 0.943818
vn -0.0000 -1.0000 -0.0000
vn -0.0000 1.0000 -0.0000
vn -1.0000 -0.0000 -0.0000
vn -0.0000 -0.0000 -1.0000
vn -0.3827 -0.0000 0.9239
vn -0.9239 -0.0000 0.3827
vn 0.3827 -0.0000 0.9239
vn 0.9239 -0.0000 0.3827
vn 1.0000 -0.0000 -0.0000
vn -0.0000 -0.0000 1.0000
vt 0.375000 0.750000
vt 0.625000 0.750000
vt 0.625000 0.986449
vt 0.621031 0.996031
vt 0.611449 1.000000
vt 0.388551 1.000000
vt 0.378969 0.996031
vt 0.375000 0.986449
vt 0.125000 0.750000
vt 0.371031 0.996031
vt 0.361449 1.000000
vt 0.138551 1.000000
vt 0.128969 0.996031
vt 0.125000 0.986449
vt 0.808819 0.263551
vt 1.000000 0.263551
vt 1.000000 0.500000
vt 0.808819 0.500000
vt 0.392956 0.225574
vt 0.512183 0.225574
vt 1.000000 0.750000
vt 0.808819 0.750000
vt 0.036137 0.156850
vt 0.036137 0.666667
vt 0.010584 0.666667
vt 0.010584 0.156850
vt 0.000000 0.666667
vt 0.000000 0.156850
vt 0.630530 0.156850
vt 0.630530 0.000000
vt 0.656083 0.000000
vt 0.656083 0.156850
vt 0.666667 0.000000
vt 0.666667 0.156850
vt 1.000000 0.986449
vt 0.808819 0.986449
vt 0.113561 0.180583
vt 0.113561 0.621842
vt 0.553106 0.180583
vt 0.553106 0.044825
vt 0.113561 0.044825
vt 0.036137 0.000000
vt 0.553106 0.621842
vt 0.630530 0.666667
vt 0.687500 0.750000
vt 0.687500 0.986449
vt 0.656083 0.666667
vt 0.666667 0.666667
vt 0.010584 0.000000
vt 0.000000 0.000000
vt 0.687500 0.500000
vt 0.510325 0.152062
vt 0.156342 0.152062
vt 0.687500 0.263551
vt 0.510325 0.073346
vt 0.156342 0.073346
vt 0.392956 0.576851
vt 0.512183 0.576851
s 0
usemtl Body
f 1/9/2 3/1/2 11/8/2 13/10/2 18/11/2 19/12/2 7/13/2 6/14/2
f 25/15/3 11/16/3 3/17/3 22/18/3
f 23/23/5 18/24/5 13/25/5 24/26/5
f 24/26/6 13/25/6 11/27/6 25/28/6
f 26/29/7 20/30/7 10/31/7 27/32/7
f 27/32/8 10/31/8 8/33/8 28/34/8
f 21/22/9 1/21/9 6/35/9 28/36/9
f 39/37/10 40/38/10 18/24/10 23/23/10
f 42/39/10 32/40/10 20/30/10 26/29/10
f 32/40/10 33/41/10 17/42/10 20/30/10
f 40/38/10 41/43/10 19/44/10 18/24/10
f 41/43/10 42/39/10 26/29/10 19/44/10
f 33/41/10 39/37/10 23/23/10 17/42/10
f 2/45/9 21/22/9 28/36/9 8/46/9
f 7/47/8 27/32/8 28/34/8 6/48/8
f 19/44/7 26/29/7 27/32/7 7/47/7
f 16/49/6 24/26/6 25/28/6 15/50/6
f 17/42/5 23/23/5 24/26/5 16/49/5
f 15/54/3 25/15/3 22/18/3 4/51/3
f 34/19/10 12/57/10 40/38/10 39/37/10
f 12/57/10 5/58/10 41/43/10 40/38/10
f 5/58/10 31/20/10 42/39/10 41/43/10
f 31/20/10 34/19/10 39/37/10 42/39/10
usemtl ButtonPanel
f 34/19/1 31/20/1 46/20/1 43/19/1
f 46/20/10 45/58/10 44/57/10 43/19/10
f 5/58/2 12/57/2 44/57/2 45/58/2
f 31/20/9 5/58/9 45/58/9 46/20/9
f 12/57/3 34/19/3 43/19/3 44/57/3
usemtl Dispenser
f 30/52/1 29/53/1 38/53/1 35/52/1
f 30/52/10 9/55/10 32/40/10 42/39/10
f 9/55/10 14/56/10 33/41/10 32/40/10
f 14/56/10 29/53/10 39/37/10 33/41/10
f 29/53/10 30/52/10 42/39/10 39/37/10
f 36/55/10 35/52/10 38/53/10 37/56/10
f 14/56/2 9/55/2 36/55/2 37/56/2
f 29/53/9 14/56/9 37/56/9 38/53/9
f 9/55/3 30/52/3 35/52/3 36/55/3
usemtl Metalwork
f 4/1/1 2/2/1 8/3/1 10/4/1 20/5/1 17/6/1 16/7/1 15/8/1
f 22/18/4 3/17/4 1/21/4 21/22/4
f 4/51/4 22/18/4 21/22/4 2/45/4
